<svg xmlns="http://www.w3.org/2000/svg" version="1.1" xmlns:xlink="http://www.w3.org/1999/xlink" xmlns:svgjs="http://svgjs.dev/svgjs" width="200" height="200" viewBox="0 0 1500 1500"><circle cx="750" cy="750" r="650" fill="#000000"></circle><g transform="matrix(0.6666666666666666,0,0,0.6666666666666666,248.44236760124625,189.33333333333348)"><svg viewBox="0 0 321 360" data-background-color="#ffffff" preserveAspectRatio="xMidYMid meet" height="1682" width="1500" xmlns="http://www.w3.org/2000/svg" xmlns:xlink="http://www.w3.org/1999/xlink"><g id="tight-bounds" transform="matrix(1,0,0,1,0.5,0)"><svg viewBox="0 0 320 360" height="360" width="320"><g><svg></svg></g><g><svg viewBox="0 0 320 360" height="360" width="320"><g><path d="M20.961 227.22l3.726 4.658-1.863-6.056c-0.466-2.795-3.726 0.466-1.863 1.398M25.153 224.425c1.397 2.329 2.795 4.658 2.795 6.987 0 3.261 2.795 4.658 5.123 5.589-3.261-3.726-5.124-13.974-7.918-12.576M204.017 26.929c7.918 0 15.371-0.932 23.756 0.931 20.495 5.124 37.729 15.371 49.374 29.811l32.606 52.169c1.397 13.042 4.192 27.482 3.726 43.319 3.261 0 2.795-4.658 6.521-5.59-3.726 9.316-5.59 20.961-6.521 34.469-2.329-7.453 0-18.632 0.466-24.687-3.261 5.124-5.124 1.397-5.124-0.932 0.466-3.726-1.397-3.261-2.795-4.658-5.124-4.658-8.384-9.782-12.11-17.7 2.329-6.055 2.795-14.905-4.658-19.563-2.329-1.397-5.124-3.726-6.521-7.453-1.863-5.124-5.124-11.179-4.193-19.097 0.466-2.329-6.987 5.124-11.179 1.863-18.166-12.576-36.332-27.016-58.224-39.127-11.645 0-20.029-4.192-24.221-9.316-3.726-4.658-0.932-10.713 4.658-11.179 3.261 0 6.987-0.932 9.782 0.932 0.466-1.863 2.329-4.192 4.657-4.192M157.904 16.215l0.932 0.466c4.658 0.932 6.987 7.453 12.11 5.124 0 3.261 0.466 6.521-0.466 8.85-1.397 3.726-5.59 3.726-8.85 3.726-31.208-1.863-49.374 11.179-68.471 22.358-5.124 3.261-10.713 5.59-14.906 9.782-20.029 18.632-41.921 35.866-47.045 70.335l-4.192 38.195c-0.466 4.192-5.124 8.384-4.192 13.508l3.26 22.824c-3.261-3.261-5.124 0.932-4.192 2.795 0.466 1.397 2.329 6.055 5.124 1.863 3.726 6.987 7.453 20.495 12.576 26.55 15.837 18.632 36.332 35.4 53.101 52.169 4.192-0.932 7.453-0.932 8.384-3.727 1.397 2.795-1.397 5.59-3.726 6.056 7.453 4.658 15.837 8.85 27.016 9.781 14.44 0.932 27.948 3.261 40.524 6.522 6.521-1.863 13.042-2.795 20.029-3.261 2.329 0 3.726-3.726 6.521-4.658l0.466-4.658c2.795 4.192 2.329-1.397 0.466-4.192 3.261 2.795 4.192 5.124 5.589 6.987 0-1.397 3.726-6.521 3.727-0.466l0.931-6.055c1.397-0.932 1.863 5.124 3.261 0.931 1.397-4.192 4.192-0.932 6.987-2.329-0.932 1.863-0.466 5.59 2.794 3.261l3.727-3.261c2.329 5.59 6.055 3.261 7.918 2.329 20.495-13.042 40.99-28.413 60.553-43.784l-0.466 6.055 2.329-7.453c2.329 2.329 4.192 0.466 5.124-0.931 2.795-4.658 6.521-9.316 12.577-13.508-7.453 20.029-16.303 35.866-27.482 48.908l-4.658 5.59c0 3.261-0.932 7.453-4.658 7.918-1.863 0.466-5.59-0.932-8.384 1.863-1.397 1.863 3.261 5.59-0.466 2.795-3.261-2.329-6.521 0-10.248 0.932-2.795 0.932 1.863 3.726 2.795 5.589 0.932 1.863 1.863 3.726 1.398 6.056l-5.124-5.59c-6.055 3.261-9.782 9.316-14.906 13.974-2.329 1.863-1.397 5.124-1.397 7.918-3.261 0-6.987-0.932-8.85 0.932-1.397 1.863-0.932 4.658-0.932 7.453-4.658-0.466-5.124-7.453-9.315-6.056-4.192 0.932-8.85 1.397-12.577 3.727 2.795 5.59-4.658 2.329-3.726 3.26-6.987-4.192-13.042-7.453-20.495-4.658-15.837-5.124-35.4-2.795-49.84-0.931 0-2.329 0.466-4.658-0.466-5.124-0.932 2.329-3.726 1.397-3.26 1.397-8.85-6.055-17.7-9.782-27.016-14.905-8.384 0.932-16.303-3.261-18.632-5.59-6.521-6.055-13.974-2.795-20.029-4.192-13.042-3.261-17.7-16.769-19.098-26.084-0.932-4.658-4.658-6.521-6.055-6.056-6.055-19.563-15.371-37.263-22.824-55.429-1.863-4.658-1.397-9.316-1.397-14.44 2.329 0.932 4.658 0.466 4.192-2.794-2.329-15.371-7.918-27.016-13.974-38.195 3.261-15.837 3.726-34.469 11.179-48.443 6.521-12.576 18.632-19.098 27.016-29.811 2.795-3.726 2.795-8.85 5.59-12.11 9.316-9.316 18.632-19.098 28.879-27.482 4.658-3.726 10.247 0 17.234-1.397 2.329-8.384 11.645-15.837 20.495-13.508 3.726 0.932 11.179-8.85 13.508-9.782 3.726-1.397 1.863 3.726 1.863 6.987 8.85-6.987 20.961-10.713 32.14-14.906" fill="#ffffff" fill-rule="nonzero" stroke="none" stroke-width="1" stroke-linecap="butt" stroke-linejoin="miter" stroke-miterlimit="10" stroke-dasharray="" stroke-dashoffset="0" font-family="none" font-weight="none" font-size="none" text-anchor="none" style="mix-blend-mode: normal" data-fill-palette-color="tertiary"></path></g><g transform="matrix(1,0,0,1,64,133.62011912640637)"><svg viewBox="0 0 192 92.75976174718728" height="92.75976174718728" width="192"><g><svg viewBox="0 0 192 92.75976174718728" height="92.75976174718728" width="192"><g><svg viewBox="0 0 192 92.75976174718728" height="92.75976174718728" width="192"><g><svg viewBox="0 0 192 92.75976174718728" height="92.75976174718728" width="192"><g id="textblocktransform"><svg viewBox="0 0 192 92.75976174718728" height="92.75976174718728" width="192" id="textblock"><g><svg viewBox="0 0 192 92.75976174718728" height="92.75976174718728" width="192"><g transform="matrix(1,0,0,1,0,0)"><svg width="192" viewBox="0.75 -31.5 75.55 36.5" height="92.75976174718728" data-palette-color="#7a26c1"><path d="M10.8 5L10.8 5Q9.45 5 7.75 4.73 6.05 4.45 4.45 3.78 2.85 3.1 1.8 1.95 0.75 0.8 0.75-0.95L0.75-0.95Q0.75-2.55 1.73-4 2.7-5.45 4.17-6.73 5.65-8 7.23-8.97 8.8-9.95 10-10.55L10-10.55Q10.4-10.75 10.9-10.95 11.4-11.15 11.85-11.15L11.85-11.15Q11.95-11.15 12.08-11.1 12.2-11.05 12.2-10.95L12.2-10.95Q12.2-10.75 11.93-10.6 11.65-10.45 11.5-10.35L11.5-10.35Q10.85-10.05 10.18-9.78 9.5-9.5 8.85-9.1L8.85-9.1Q7.55-8.4 6.15-7.3 4.75-6.2 3.8-4.83 2.85-3.45 2.85-1.8L2.85-1.8Q2.85 0.05 4.03 1.07 5.2 2.1 6.9 2.53 8.6 2.95 10.05 2.95L10.05 2.95Q11.95 2.95 13.9 2.55 15.85 2.15 17.7 1.6L17.7 1.6Q19 1.2 20.7 0.38 22.4-0.45 24.2-1.55 26-2.65 27.55-4 29.1-5.35 30.05-6.85 31-8.35 31-9.9L31-9.9Q31-11.55 29.98-12.7 28.95-13.85 27.5-14.65 26.05-15.45 24.75-15.9L24.75-15.9Q23.95-16.25 23.05-16.5 22.15-16.75 21.3-17.05L21.3-17.05Q20.45-17.3 19.18-17.7 17.9-18.1 16.93-18.8 15.95-19.5 15.8-20.6L15.8-20.6Q15.75-20.75 15.75-21.05L15.75-21.05Q15.75-23 16.88-24.58 18-26.15 19.83-27.33 21.65-28.5 23.78-29.28 25.9-30.05 27.98-30.43 30.05-30.8 31.6-30.8L31.6-30.8Q33.3-30.8 35.25-30.33 37.2-29.85 38.3-28.4L38.3-28.4Q38.65-28.95 38.95-29.53 39.25-30.1 39.35-30.7L39.35-30.7Q39.4-30.95 39.5-31.23 39.6-31.5 39.9-31.5L39.9-31.5Q40.15-31.5 40.2-31.23 40.25-30.95 40.25-30.8L40.25-30.8Q40.25-30.6 40-29.85 39.75-29.1 39.45-28.38 39.15-27.65 39.05-27.4L39.05-27.4Q39.3-27.05 39.63-26.4 39.95-25.75 39.95-25.3L39.95-25.3Q39.95-25.1 39.85-24.65 39.75-24.2 39.5-24.1L39.5-24.1Q39.5-24.1 39.18-24.7 38.85-25.3 38.75-25.4L38.75-25.4Q38.3-24.45 37.85-23.15 37.4-21.85 36.7-21L36.7-21Q36.5-20.8 36.27-20.75 36.05-20.7 35.8-20.7L35.8-20.7Q35.6-20.7 35.1-20.78 34.6-20.85 34.18-21.03 33.75-21.2 33.75-21.45L33.75-21.45Q33.75-21.7 34.23-22.43 34.7-23.15 35.38-24.05 36.05-24.95 36.65-25.75 37.25-26.55 37.45-26.95L37.45-26.95Q36.5-28.45 34.75-29 33-29.55 31.3-29.55L31.3-29.55Q29.1-29.55 26.75-28.85L26.75-28.85Q25.65-28.55 24.25-27.95 22.85-27.35 21.53-26.48 20.2-25.6 19.33-24.45 18.45-23.3 18.45-21.95L18.45-21.95Q18.45-20.85 19.18-20.03 19.9-19.2 21.03-18.65 22.15-18.1 23.3-17.73 24.45-17.35 25.25-17.1L25.25-17.1Q26.5-16.7 28.1-16.05 29.7-15.4 31.18-14.45 32.65-13.5 33.6-12.25 34.55-11 34.55-9.35L34.55-9.35Q34.55-7.7 33.55-6.13 32.55-4.55 30.95-3.15 29.35-1.75 27.5-0.58 25.65 0.6 23.88 1.48 22.1 2.35 20.8 2.9L20.8 2.9Q18.45 3.85 15.93 4.42 13.4 5 10.8 5ZM46.85 5L46.85 5Q45.5 5 43.8 4.73 42.1 4.45 40.5 3.78 38.9 3.1 37.85 1.95 36.8 0.8 36.8-0.95L36.8-0.95Q36.8-2.55 37.77-4 38.75-5.45 40.22-6.73 41.7-8 43.27-8.97 44.85-9.95 46.05-10.55L46.05-10.55Q46.45-10.75 46.95-10.95 47.45-11.15 47.9-11.15L47.9-11.15Q48-11.15 48.12-11.1 48.25-11.05 48.25-10.95L48.25-10.95Q48.25-10.75 47.97-10.6 47.7-10.45 47.55-10.35L47.55-10.35Q46.9-10.05 46.22-9.78 45.55-9.5 44.9-9.1L44.9-9.1Q43.6-8.4 42.2-7.3 40.8-6.2 39.85-4.83 38.9-3.45 38.9-1.8L38.9-1.8Q38.9 0.05 40.07 1.07 41.25 2.1 42.95 2.53 44.65 2.95 46.1 2.95L46.1 2.95Q48 2.95 49.95 2.55 51.9 2.15 53.75 1.6L53.75 1.6Q55.05 1.2 56.75 0.38 58.45-0.45 60.25-1.55 62.05-2.65 63.6-4 65.15-5.35 66.1-6.85 67.05-8.35 67.05-9.9L67.05-9.9Q67.05-11.55 66.02-12.7 65-13.85 63.55-14.65 62.1-15.45 60.8-15.9L60.8-15.9Q60-16.25 59.1-16.5 58.2-16.75 57.35-17.05L57.35-17.05Q56.5-17.3 55.22-17.7 53.95-18.1 52.97-18.8 52-19.5 51.85-20.6L51.85-20.6Q51.8-20.75 51.8-21.05L51.8-21.05Q51.8-23 52.92-24.58 54.05-26.15 55.87-27.33 57.7-28.5 59.82-29.28 61.95-30.05 64.02-30.43 66.1-30.8 67.65-30.8L67.65-30.8Q69.35-30.8 71.3-30.33 73.25-29.85 74.35-28.4L74.35-28.4Q74.7-28.95 75-29.53 75.3-30.1 75.4-30.7L75.4-30.7Q75.45-30.95 75.55-31.23 75.65-31.5 75.95-31.5L75.95-31.5Q76.2-31.5 76.25-31.23 76.3-30.95 76.3-30.8L76.3-30.8Q76.3-30.6 76.05-29.85 75.8-29.1 75.5-28.38 75.2-27.65 75.1-27.4L75.1-27.4Q75.35-27.05 75.67-26.4 76-25.75 76-25.3L76-25.3Q76-25.1 75.9-24.65 75.8-24.2 75.55-24.1L75.55-24.1Q75.55-24.1 75.22-24.7 74.9-25.3 74.8-25.4L74.8-25.4Q74.35-24.45 73.9-23.15 73.45-21.85 72.75-21L72.75-21Q72.55-20.8 72.32-20.75 72.1-20.7 71.85-20.7L71.85-20.7Q71.65-20.7 71.15-20.78 70.65-20.85 70.22-21.03 69.8-21.2 69.8-21.45L69.8-21.45Q69.8-21.7 70.27-22.43 70.75-23.15 71.42-24.05 72.1-24.95 72.7-25.75 73.3-26.55 73.5-26.95L73.5-26.95Q72.55-28.45 70.8-29 69.05-29.55 67.35-29.55L67.35-29.55Q65.15-29.55 62.8-28.85L62.8-28.85Q61.7-28.55 60.3-27.95 58.9-27.35 57.57-26.48 56.25-25.6 55.37-24.45 54.5-23.3 54.5-21.95L54.5-21.95Q54.5-20.85 55.22-20.03 55.95-19.2 57.07-18.65 58.2-18.1 59.35-17.73 60.5-17.35 61.3-17.1L61.3-17.1Q62.55-16.7 64.15-16.05 65.75-15.4 67.22-14.45 68.7-13.5 69.65-12.25 70.6-11 70.6-9.35L70.6-9.35Q70.6-7.7 69.6-6.13 68.6-4.55 67-3.15 65.4-1.75 63.55-0.58 61.7 0.6 59.92 1.48 58.15 2.35 56.85 2.9L56.85 2.9Q54.5 3.85 51.97 4.42 49.45 5 46.85 5Z" opacity="1" transform="matrix(1,0,0,1,0,0)" fill="#ffffff" class="wordmark-text-0" data-fill-palette-color="primary" id="text-0"></path></svg></g></svg></g></svg></g></svg></g><g></g></svg></g></svg></g></svg></g></svg></g><defs></defs></svg><rect width="320" height="360" fill="none" stroke="none" visibility="hidden"></rect></g></svg></g></svg>